<svg xmlns="http://www.w3.org/2000/svg" width="169" height="153" viewBox="0 0 169 153">
<g>
<path d="M 20.39 130.42 C20.73,129.55 21.00,128.43 21.00,127.94 C21.00,127.44 34.34,115.35 50.65,101.07 L 80.29 75.11 L 100.06 74.81 L 119.82 74.50 L 123.66 71.43 C125.77,69.74 128.29,66.81 129.25,64.93 C133.23,57.12 130.09,46.60 122.48,42.29 C118.63,40.11 117.64,40.03 91.92,40.02 L 65.34 40.00 L 60.96 56.25 L 56.59 72.50 L 41.17 90.25 C32.70,100.01 25.63,108.00 25.48,108.00 C25.15,108.00 26.92,101.50 39.79,55.50 L 49.59 20.50 L 87.55 20.50 L 125.50 20.50 L 131.28 23.43 C138.41,27.04 145.28,34.23 148.82,41.78 C151.14,46.73 151.50,48.78 151.50,57.02 C151.50,65.76 151.23,67.09 148.23,73.19 C144.13,81.50 136.25,88.97 128.25,92.11 C123.27,94.07 120.17,94.43 105.10,94.79 L 87.70 95.20 L 66.29 113.60 L 44.87 132.00 L 32.33 132.00 C21.30,132.00 19.86,131.81 20.39,130.42 Z" fill="rgba(0,0,0,1)"/>
</g>
</svg>